<svg width="28" height="52" viewBox="0 0 28 52" fill="none" xmlns="http://www.w3.org/2000/svg">
<path d="M27.3467 13.3467C27.3467 19.24 18.8533 42.055 15.4083 51.025C14.91 52.325 13.09 52.325 12.5917 51.025C9.14665 42.055 0.65332 19.24 0.65332 13.3467C0.65332 5.98 6.63332 0 14 0C21.3667 0 27.3467 5.98 27.3467 13.3467Z" fill="#03CFBB"/>
<path d="M14 24.5266C20.1745 24.5266 25.18 19.5212 25.18 13.3466C25.18 7.17208 20.1745 2.16663 14 2.16663C7.82543 2.16663 2.81998 7.17208 2.81998 13.3466C2.81998 19.5212 7.82543 24.5266 14 24.5266Z" fill="white"/>
<path d="M21.605 12.9134C20.7817 11.44 19.655 10.335 18.0517 9.77169C17.5967 9.59836 17.2717 9.40336 17.0767 8.90503C16.8383 8.25503 16.3183 7.82169 15.6683 7.62669C14.585 7.28003 13.4367 7.15003 12.2883 7.02003C11.6383 6.93336 11.3133 7.34503 11.4217 7.99503C11.5083 8.38503 11.66 8.77503 11.7683 9.14336C11.985 9.90169 11.9633 9.88003 11.3133 10.2484C11.0317 10.4217 10.7067 10.5734 10.4467 10.79C10.1 11.0934 9.84001 11.1367 9.42834 10.8117C8.80001 10.27 8.04168 9.98836 7.19668 9.98836C6.41668 9.98836 6.20001 10.1834 6.17834 10.9417V16.4667C6.20001 17.29 6.41668 17.5067 7.26168 17.4417C8.10668 17.3984 8.82168 17.0734 9.47168 16.5534C9.75334 16.3367 9.94834 16.2934 10.2733 16.5534C10.9233 17.0734 11.66 17.4634 12.4617 17.745C12.7433 17.8534 12.96 17.94 12.895 18.3084C12.8733 18.4167 12.895 18.5467 12.895 18.6767C12.9167 19.565 13.285 19.8684 14.13 19.6517C15.0833 19.3917 15.9933 19.0667 16.665 18.33C16.9033 18.07 17.2067 17.94 17.5317 17.8317C19.3083 17.2684 20.5867 16.1417 21.54 14.56C21.8867 13.9967 21.9083 13.4984 21.605 12.9134ZM16.99 14.4517C16.4267 14.4517 15.9067 13.91 15.9067 13.3684C15.885 12.7834 16.4483 12.22 17.0333 12.2417C17.5967 12.2417 18.16 12.87 18.1167 13.4117C18.0733 13.975 17.5317 14.4734 16.99 14.4517Z" fill="#03CFBB"/>
</svg>
