<svg xmlns="http://www.w3.org/2000/svg" width="273" height="378" fill="none" viewBox="0 0 273 378">
  <path stroke="#B37356" stroke-linecap="round" stroke-miterlimit="10" d="M164.856 188.873C195.369 98.956 226.279 30.328 267.455.62"/>
  <path fill="#B27457" d="M115.374 111.276c-.859 3.195-2.666 5.443-6.037 6.17-1.3.177-2.599.397-3.899.507-.287.022-.617-.286-.926-.463.353-.198.683-.396 1.036-.595 3.283-1.851 6.543-3.746 9.826-5.619Z"/>
  <path fill="#D96147" d="M50.404 201.149c4.34-12.121 13.57-36.54 18.065-48.617 2.291-6.171 4.935-12.21 7.579-18.248 2.511-5.752 6.83-9.741 12.448-12.43 1.454-.705 2.82-1.587 4.252-2.38 4.274-.86 8.548-1.719 12.8-2.579-.353.199-.683.397-1.036.595.309.155.639.485.926.463 1.299-.11 2.599-.33 3.899-.507.551.419 1.058.97 1.697 1.212 4.23 1.521 8.482 2.998 12.734 4.474.991.882 1.85 2.006 2.996 2.535 1.057.507 2.533.815 3.591.462 16.347-5.399 31.637-13.245 47.015-20.87.881-.441 2.225.022 3.348.044.507 2.601.992 5.201 1.499 7.802-.551 1.212-.75 2.909-1.697 3.548-9.76 6.545-19.387 13.333-29.566 19.218-5.882 3.393-12.668 5.245-19.035 7.779-.198-3.129-.154-6.325-.683-9.388-.529-3.086-2.798-4.43-5.838-4.672-6.147-.463-10.223 2.6-12.536 7.845-2.093 4.694-3.657 9.653-5.177 14.59-2.446 7.956-1.564 16.132-1.058 24.242.265 4.232-9.98 34.006-9.495 38.237"/>
  <path fill="#708B87" d="M98.19 219.044c.594 2.38 2.555 38.832 3.811 58.248.33 5.091.683 10.16.969 15.251.044.903-.176 1.807-.286 2.71-.815.331-1.609.728-2.446.992-5.353 1.675-10.751 3.24-16.082 4.981-1.895.617-3.658 1.587-5.486 2.402-.397-4.121-.551-8.264-1.234-12.341-1.124-6.766-2.578-13.488-3.966-20.21-.088-.441-.947-.749-1.454-1.102-.044-1.432.176-2.909-.176-4.253-1.52-5.752-3.327-11.438-4.803-17.212-1.762-6.942-3.26-13.951-4.89-20.915-.64-2.733-1.014-5.532-3.702-7.339-3.767-2.534-7.38-5.311-11.082-8l3.04-11.107c4.914.132 9.87.044 14.762.441 8.085.683 15.377 4.121 22.758 7.118 0 0 7.755 3.636 8.614 4.518.75.771 1.652 5.818 1.652 5.818Z"/>
  <path fill="#B27457" d="M78.67 303.628c1.829-.815 3.591-1.785 5.486-2.402 5.331-1.741 10.729-3.306 16.082-4.981.838-.264 1.631-.661 2.446-.992 1.674.044 2.534.64 2.379 2.601-.352 4.121-.286 8.286-.705 12.408-1.52 14.854-3.172 29.708-4.736 44.562-.177 1.608-.243 3.261-.133 4.892.309 5.135 2.027 7.163 7.116 8.463 2.049.529 4.164.837 6.257 1.256.793.529 1.587 1.08 2.402 1.609 1.123 5.201 1.123 5.223-4.384 5.377-10.597.287-21.194.463-31.791.816-2.16.066-2.49-.397-2.226-2.557.53-4.54.75-9.146.793-13.73.155-15.338.243-30.677-1.828-45.906-.198-1.499-.044-3.063-.176-4.584-.265-2.865.44-5.245 3.018-6.832Z"/>
  <path fill="#61736E" d="M47.386 212.256c3.679 2.667 7.292 5.444 11.081 8 2.688 1.807 3.063 4.606 3.701 7.339 1.63 6.964 3.129 13.973 4.891 20.915 1.454 5.774 3.283 11.438 4.803 17.212.353 1.344.132 2.843.176 4.253-.925 9.741-5.067 18.138-11.147 25.565-3.393 4.143-7.359 7.846-11.082 11.747l-15.995-10.711c2.996-7.515 6.213-14.964 8.967-22.568 3.018-8.308 3.194-17.124 3.459-25.851.33-10.975.418-21.972.66-32.948-.021-.991.31-1.961.486-2.953Z"/>
  <path fill="#B27457" d="M52.629 310.085c.264 6.061-14.122 19.901-20.776 27.989-3.569 4.342-5.684 9.521-6.52 15.229-1.014 6.898 4.956 14.722 11.015 15.339.881.088 2.247 1.124 2.335 1.873.154 1.234-.154 2.953-.947 3.835-2.05 2.27-4.98 2.578-7.887 2.402-5.552-.375-9.584-3.35-12.36-7.89-4.076-6.721-9.077-12.496-15.576-16.925-1.586-1.08-1.564-1.83-.287-3.504 6.654-8.706 11.435-18.469 16.061-28.342 2.93-6.259 6.147-12.386 9.275-18.557 1.41-2.798 3.173-5.201 6.83-4.936l15.995 10.711"/>
  <path fill="#FC856B" d="M106.605 176.267c-.506-8.11-1.388-16.286 1.058-24.242 1.52-4.937 3.084-9.896 5.177-14.59 2.336-5.245 6.389-8.286 12.536-7.845 3.062.22 5.332 1.586 5.838 4.672.529 3.085.485 6.259.683 9.388-.484.86-1.277 1.653-1.41 2.557-1.366 9.146-2.687 18.292-3.899 27.438-.265 2.071.925 2.997 3.018 2.49.793-.198 1.564-.463 2.335-.727 6.213-2.226 12.426-4.518 18.683-6.59.947-.308 2.247.375 3.393.595l.727 8.066c.352 2.491-.97 3.725-3.063 4.871-8.548 4.694-16.986 9.587-26.569 11.923-1.961.485-3.988.661-5.993.947-3.965.551-6.918-.661-8.68-4.518"/>
  <path fill="#FBD2AF" d="m154.744 177.479-.727-8.066c1.432-.308 3.128-.22 4.274-.969 4.186-2.711 8.614-3.945 13.571-3.13.529.331 1.057.683 1.586 1.014.309.947.441 2.005.925 2.821 2.336 3.812 1.543 6.7-2.599 8.485-1.278.551-2.688.749-4.032 1.102l-1.388.066c-3.547-3.196-7.579-2.182-11.61-1.323Zm27.451-64.352c-.507-2.601-.992-5.201-1.498-7.802 3.15-1.498 6.234-3.195 9.473-4.452 2.467-.947 5.155-1.3 7.755-1.895.044.816.11 1.609.154 2.424.617-.396 1.256-.771 1.873-1.168 3.943 3.526 4.01 6.127-.022 9.433-1.675 1.366-3.679 2.336-5.53 3.482.551-1.499 1.168-2.975 1.608-4.496.177-.617-.066-1.366-.11-2.05-.529.463-1.234.816-1.542 1.411-.881 1.675-1.586 3.46-2.357 5.179.132-1.873-.617-3.041-2.578-2.512-2.424.661-4.803 1.63-7.226 2.446Zm-48.491-16.11c-1.587-3.218-3.151-6.458-4.737-9.675-1.08 4.32-2.137 8.639-3.217 12.958l-2.335 2.358c-2.688 2.865-5.353 5.753-8.041 8.618-.86 3.195-2.666 5.443-6.037 6.17.551.419 1.058.97 1.697 1.212 4.23 1.521 8.482 2.998 12.734 4.474-.044-1.697.639-2.732 2.401-3.195.991-.265 1.851-1.014 2.754-1.543l5.464-12.43c.572-1.631.903-3.328 1.344-5.002-.683-1.3-1.388-2.623-2.027-3.945Z"/>
  <path fill="#B27457" d="m121.917 102.416 2.335-2.336c1.498 2.182 2.886 4.452 4.539 6.479 1.74 2.138 3.15 1.807 4.098-.837.572-1.631.903-3.328 1.343-5.003 1.719-.529 2.093.441 2.314 1.873.176 1.19.374 2.469.991 3.46 2.974 4.849.97 10.138-4.648 11.615-1.741.463-3.614.33-5.442.463-2.313-1.83-2.974-4.21-3.195-7.163-.22-2.865-1.498-5.686-2.335-8.551Z"/>
  <path fill="#D0AF8F" d="M105.548 116.917c-4.274.86-8.548 1.719-12.8 2.579-.97-1.477-2.776-2.975-2.732-4.408.242-6.545-2.82-11.967-5.111-17.697-.485-1.212-.419-3.085.198-4.187 4.01-7.163 9.385-13.245 15.62-18.579 1.608-1.388 3.151-2.93 4.979-3.989 1.014-.573 3.018-.837 3.723-.242 4.781 4.033 10.047 4.87 15.929 3.218 2.181-.617 3.789-.507 3.657 2.534-.154 3.725-.044 7.471-.022 11.218-1.079 4.32-2.159 8.639-3.216 12.958l-2.336 2.336c-2.688 2.865-5.353 5.753-8.041 8.618-3.305 1.873-6.565 3.768-9.848 5.641Zm9.694 254.127c-.793-.529-1.587-1.08-2.402-1.609 1.322-.22 2.534-.308 2.402 1.609Z"/>
  <path stroke="#70A7B3" stroke-linecap="round" stroke-miterlimit="10" stroke-width=".5" d="M267.456 1.854c14.452 19.107-5.64 40.529-42.102 36.364-36.726-3.438-93.743-20.827-120.842-20.606-65.146.55-78.894 27.46-72.79 40.573"/>
  <path fill="#231F20" d="M32.184 58.449c1.3 2.248 3.591 2.248 5.772 3.482 2.247 1.455.75 5.223-1.939 4.518-.639-.132-1.344-.44-1.52-1.08.793.882 2.291.793 3.129.11 2.203-2.688-1.41-3.482-3.305-4.363-1.035-.507-2.137-1.3-2.512-2.513-.11-.242.265-.396.375-.154Z"/>
</svg>
