<svg width="390" height="388" viewBox="0 0 390 388" fill="none" xmlns="http://www.w3.org/2000/svg">
<path d="M239.906 321.488C239.57 334.568 239.023 347.67 238.96 360.75C238.939 365.973 239.969 371.197 240.537 376.42C237.531 376.42 234.505 376.42 231.5 376.42C229.987 376.273 228.453 376.104 226.94 375.957C224.502 375.936 222.043 375.936 219.605 375.915C214.351 375.704 209.097 375.43 203.843 375.325C202.078 375.283 201.469 375.157 202.057 373.071C202.793 370.417 203.801 368.732 206.912 368.901C208.046 368.964 209.223 368.248 210.379 367.974C218.092 366.142 219.416 361.992 218.933 354.852C218.47 348.028 217.609 341.245 216.789 334.442C216.18 329.429 215.339 324.458 214.666 319.445C214.498 318.245 214.645 317.002 214.624 315.78C216.537 316.202 218.428 316.602 220.341 317.044C226.855 318.518 233.37 320.014 239.906 321.488Z" fill="#B37657"/>
<path d="M226.96 376.42C226.96 376.273 226.939 376.104 226.918 375.957C228.432 376.104 229.966 376.273 231.479 376.42C229.966 376.42 228.474 376.42 226.96 376.42Z" fill="#D9C6BA"/>
<path d="M289.608 151.574C292.55 154.544 295.661 157.387 298.435 160.505C302.89 165.517 304.55 171.752 305.496 178.218C307.177 189.845 304.781 201.114 302.344 212.382C301.083 218.217 299.885 224.072 298.351 229.823C297.342 233.656 296.48 234.035 292.571 234.225C289.713 229.422 285.825 225.652 280.739 223.44C272.564 219.881 263.927 220.344 255.311 221.124C256.025 220.386 256.761 219.628 257.475 218.891C257.664 218.701 257.853 218.533 258.043 218.343C258.232 218.154 258.421 217.985 258.61 217.796C263.065 214.257 266.05 209.56 268.004 204.379C271.997 193.784 274.624 182.937 272.817 171.394C271.787 164.865 270.61 158.609 265.062 154.228C264.705 153.954 264.515 153.47 264.263 153.09C268.319 149.931 273.237 149.762 278.007 149.278C282.042 148.857 285.888 150.036 289.608 151.574Z" fill="#CCBD6E"/>
<path d="M255.689 276.245C254.911 276.329 253.797 276.119 253.44 276.54C247.199 284.059 240.684 291.41 237.805 301.099C234.568 300.699 231.311 300.404 228.095 299.878C224.081 299.225 220.088 298.361 216.095 297.603C217.314 290.041 218.008 282.332 219.962 274.96C221.16 270.369 223.871 266.009 226.603 262.049C232.887 252.971 239.591 244.208 246.148 235.32C247.178 235.257 248.207 235.257 249.237 235.151C258.106 234.119 266.848 234.098 274.939 238.711C276.368 239.533 277.65 240.607 279.016 241.555C278.638 242.292 278.239 243.029 277.86 243.766C276.179 247.073 274.96 250.717 272.754 253.624C268.277 259.584 263.212 265.124 258.547 270.937C257.286 272.475 256.614 274.455 255.689 276.245Z" fill="#748E8B"/>
<path d="M257.475 218.891C256.761 219.628 256.025 220.386 255.311 221.124C252.494 222.64 249.657 224.178 246.841 225.694C242.722 226.895 238.624 228.18 234.484 229.296C231.605 230.075 228.663 230.707 225.742 231.297C223.22 231.802 220.782 231.908 220.235 228.475C219.395 226.01 218.554 223.546 217.714 221.081C218.281 220.534 218.764 219.67 219.458 219.46C222.232 218.617 225.279 218.406 227.822 217.143C234.253 213.92 240.453 210.192 246.799 206.801C249.09 205.579 249.931 203.683 250.057 201.303C250.666 188.813 251.255 176.323 251.864 163.832C251.822 158.841 254.386 155.386 259.703 153.196C261.216 153.175 262.75 153.133 264.263 153.111C264.536 153.491 264.726 153.975 265.062 154.249C270.61 158.63 271.787 164.886 272.817 171.415C274.624 182.958 271.997 193.805 268.004 204.4C266.05 209.581 263.065 214.278 258.61 217.817C258.421 218.006 258.232 218.175 258.043 218.364C257.853 218.533 257.664 218.701 257.475 218.891Z" fill="#FB846D"/>
<path d="M202.309 240.628C224.607 89.1855 217.209 25.1543 144.705 18.1825" stroke="#B37356" stroke-width="1.5" stroke-miterlimit="10" stroke-linecap="round"/>
<path d="M255.689 276.245C256.614 274.476 257.286 272.475 258.526 270.937C263.192 265.103 268.256 259.584 272.733 253.624C274.918 250.696 276.158 247.073 277.839 243.766C278.218 243.029 278.617 242.292 278.995 241.555C279.563 241.828 280.235 241.997 280.677 242.397C282.862 244.356 284.985 246.378 287.149 248.358C286.12 259.058 285.111 269.758 284.018 280.458C283.367 286.903 285.279 292.4 289.713 297.055C287.296 298.635 284.733 300.046 282.484 301.837C279.647 304.09 277.083 306.681 274.393 309.124C271.43 306.576 268.214 304.238 265.566 301.373C263.234 298.825 260.901 295.918 259.703 292.758C257.896 287.977 257.076 282.817 255.836 277.825C255.794 277.277 255.773 276.709 255.731 276.161L255.689 276.245Z" fill="#60716C"/>
<path d="M305.979 310.767C311.927 322.879 317.916 334.969 326.154 345.774C326.953 346.827 328.319 347.985 328.214 348.996C328.13 349.944 326.533 350.85 325.482 351.587C320.039 355.442 316.634 360.897 313.356 366.521C311.191 370.249 308.417 373.472 304.13 374.735C300.852 375.704 297.426 376.189 294.463 373.914C293.496 373.177 292.403 371.576 292.592 370.586C292.781 369.491 294.211 368.206 295.387 367.785C303.163 365.067 306.82 357.19 304.025 349.165C301.986 343.288 298.393 338.444 294.379 333.831C291.289 330.293 288.221 326.733 285.153 323.194C286.162 322.289 287.086 321.278 288.179 320.498C293.685 316.496 299.128 312.284 305.979 310.767Z" fill="#B37657"/>
<path d="M261.552 113.429C260.039 109.975 262.561 106.162 266.512 106.225C270.442 106.289 274.372 106.668 278.302 106.92C280.929 109.68 283.955 111.428 287.948 110.649C292.403 112.418 295.387 115.556 296.627 120.19C297.867 124.803 298.603 129.416 297.72 134.302C296.732 139.863 294.231 144.265 289.587 147.403C286.813 147.467 283.997 147.888 281.307 147.467C278.155 146.961 277.188 145.255 277.251 141.99C277.272 140.389 277.377 138.789 277.356 137.188C277.272 132.112 273.699 130.005 269.412 132.659C267.626 133.776 266.176 133.481 265.209 132.112C261.321 126.53 259.304 123.35 265.062 116.862C265.755 116.083 266.596 115.472 267.247 114.693C267.647 114.229 268.151 113.513 268.025 113.092C267.878 112.629 266.995 112.06 266.512 112.144C264.852 112.439 263.212 112.966 261.552 113.429Z" fill="#B37657"/>
<path d="M259.703 153.196C254.365 155.386 251.822 158.841 251.864 163.832C251.549 163.622 251.212 163.453 250.96 163.18C238.687 150.121 229.461 135.082 222.4 118.674C222.064 117.873 222.442 116.757 222.484 115.788C224.207 113.576 225.931 111.365 227.633 109.153C228.411 109.68 229.398 110.059 229.945 110.775C235.913 118.632 241.734 126.635 247.829 134.429C250.813 138.241 254.239 141.695 257.454 145.297C258.211 147.951 258.946 150.563 259.703 153.196Z" fill="#D86148"/>
<path d="M77.1401 207.643C83.3397 203.957 89.8335 201.43 97.231 201.893C98.8282 201.998 99.6268 202.104 99.879 204.105C100.909 212.404 97.0209 219.312 88.2574 223.82C84.5166 225.736 80.6707 227.421 76.8669 229.254C71.5709 231.802 68.5447 236.12 67.641 241.849C67.3048 243.956 67.3048 246.188 69.3013 247.747C68.5237 248.906 67.7461 250.085 66.9685 251.243C63.9633 249.011 63.4799 245.409 63.2067 242.292C62.7234 236.542 62.3451 230.623 64.6988 225.062C65.4134 223.356 66.254 221.671 67.0316 219.986C70.3941 215.879 73.7566 211.751 77.1401 207.643ZM88.6356 214.11C87.1435 216.974 87.5428 219.776 89.8125 221.376C89.4132 218.891 89.0139 216.405 88.6356 214.11Z" fill="#C0D7DF"/>
<path d="M287.149 248.358C285.006 246.357 282.862 244.335 280.676 242.397C280.214 241.997 279.563 241.828 278.995 241.555C277.65 240.607 276.368 239.512 274.918 238.711C266.827 234.098 258.085 234.119 249.216 235.151C248.186 235.278 247.156 235.278 246.127 235.32C246.358 232.118 246.589 228.917 246.82 225.715C249.636 224.199 252.473 222.661 255.29 221.145C263.906 220.386 272.543 219.902 280.718 223.462C285.804 225.673 289.692 229.443 292.55 234.246C290.764 238.943 288.957 243.661 287.149 248.358Z" fill="#D86148"/>
<path d="M216.096 297.603C220.088 298.361 224.081 299.225 228.095 299.878C231.311 300.404 234.568 300.699 237.805 301.099C238.309 301.458 238.75 302.047 239.297 302.153C243.983 303.121 243.269 302.932 243.29 307.229C243.332 310.894 243.311 314.58 243.29 318.245C243.29 321.804 243.29 321.804 239.885 321.488C233.349 320.014 226.835 318.518 220.299 317.065C218.386 316.644 216.495 316.223 214.582 315.801C212.376 314.601 212.124 312.642 212.229 310.367C212.376 307.46 212.271 304.533 212.271 301.605C212.292 297.835 212.292 297.835 216.096 297.603Z" fill="#CCBD6E"/>
<path d="M305.979 310.767C299.107 312.305 293.685 316.496 288.158 320.498C287.065 321.278 286.14 322.289 285.132 323.194C284.522 323.405 283.745 323.468 283.366 323.889C281.328 326.059 280.214 325.048 279.037 322.963C277.755 320.709 276.326 318.497 274.666 316.496C273.174 314.685 272.018 313.147 273.951 310.978C274.309 310.557 274.246 309.756 274.393 309.145C277.083 306.702 279.647 304.111 282.484 301.858C284.732 300.067 287.296 298.656 289.713 297.076C290.512 296.824 291.331 296.655 292.067 296.318C296.249 294.401 296.522 294.359 299.317 298.003C301.818 301.268 304.151 304.68 306.378 308.134C306.757 308.682 306.147 309.862 305.979 310.767Z" fill="#CCBD6E"/>
<path d="M259.703 153.196C257.643 151.321 257.265 145.782 257.265 145.782C257.265 145.782 258.421 142.285 258.253 140.663C256.887 133.523 257.034 126.488 259.178 119.537C259.829 117.452 260.754 115.451 261.531 113.429C263.192 112.987 264.831 112.439 266.512 112.144C266.974 112.06 267.857 112.629 268.025 113.092C268.151 113.513 267.647 114.229 267.248 114.693C266.575 115.472 265.734 116.104 265.062 116.862C259.304 123.35 261.321 126.53 265.209 132.112C266.176 133.502 267.626 133.776 269.412 132.659C273.699 130.005 277.272 132.112 277.356 137.188C277.377 138.789 277.272 140.389 277.251 141.99C277.188 145.255 278.155 146.961 281.307 147.467C283.997 147.888 286.813 147.467 289.587 147.403C289.587 148.794 289.608 150.184 289.608 151.574C285.888 150.036 282.064 148.857 278.008 149.278C273.237 149.784 268.319 149.952 264.263 153.09C262.75 153.133 261.216 153.175 259.703 153.196Z" fill="#FDD4B1"/>
<path d="M204.453 216.574C205.504 216.574 206.554 216.553 207.605 216.553C210.127 219.944 213.742 220.934 217.714 221.081C218.554 223.546 219.395 226.01 220.236 228.474C215.969 229.064 211.703 229.633 207.437 230.307C206.765 230.412 206.197 231.023 205.567 231.402C204.642 231.044 203.696 230.707 202.772 230.349C202.225 229.591 201.721 228.79 201.111 228.074C197.707 224.03 197.938 221.776 202.12 218.554C202.919 217.922 203.675 217.227 204.453 216.574Z" fill="#FDD4B1"/>
<path d="M215.339 110.838C214.96 109.048 215.024 107.131 214.54 105.362C214.393 104.835 213.826 104.456 213.426 103.993C213.048 104.688 212.355 105.383 212.376 106.078C212.376 107.279 212.397 108.479 212.586 109.701C212.628 110.017 212.649 110.585 212.502 110.922C209.665 109.259 208.551 106.141 208.13 103.298C207.899 101.781 209.749 99.9487 210.652 98.2637C212.039 98.5586 213.552 99.7592 214.582 97.695C218.89 96.705 220.383 100.117 222.4 102.729C224.102 104.92 225.868 107.026 227.591 109.195C225.868 111.407 224.144 113.619 222.442 115.83C222.4 113.576 220.319 110.396 218.26 109.911C217.524 109.68 216.179 110.522 215.339 110.838Z" fill="#FDD4B1"/>
<path d="M66.9685 251.243C67.7461 250.085 68.5237 248.905 69.3012 247.747C73.3152 247.052 77.3292 246.357 81.3432 245.683C75.711 250.085 75.3537 255.54 77.6024 261.649C72.4536 260.68 67.2627 255.519 66.9685 251.243Z" fill="#748E8B"/>
<path d="M77.1401 207.643C73.7776 211.751 70.3941 215.879 67.0316 219.986C66.5903 218.996 66.275 217.901 65.6446 217.016C64.4257 215.31 64.6989 214.089 66.212 212.656C69.3223 209.729 73 208.254 77.1401 207.643Z" fill="#748E8B"/>
<path d="M287.948 110.649C283.955 111.428 280.929 109.68 278.302 106.921C279.458 107.152 280.613 107.384 281.769 107.616C283.24 108.269 284.733 108.9 286.204 109.553C286.792 109.911 287.381 110.27 287.948 110.649Z" fill="#FDD4B1"/>
<path d="M286.204 109.532C285.006 108.858 283.598 108.205 281.769 107.595C280.256 107.089 284.732 108.9 286.204 109.532Z" fill="#B37657"/>
<path d="M255.752 276.14C255.794 276.688 255.815 277.256 255.857 277.804C255.815 277.256 255.773 276.709 255.752 276.14Z" fill="#495151"/>
<path d="M258.042 218.343C258.232 218.154 258.421 217.985 258.61 217.796C258.442 217.985 258.232 218.154 258.042 218.343Z" fill="#D8935C"/>
<path d="M257.475 218.891C257.664 218.701 257.853 218.533 258.043 218.343C257.853 218.533 257.664 218.701 257.475 218.891Z" fill="#D8935C"/>
<path d="M88.6356 214.11C89.0139 216.405 89.4132 218.891 89.8125 221.376C87.5428 219.776 87.1435 216.974 88.6356 214.11Z" fill="#748E8B"/>
<path d="M143.57 18.1825C136.215 45.6064 122.576 66.1427 104.565 81.9399C85.3572 99.8434 85.5883 116.736 102.863 132.744C136.782 164.696 130.94 181.652 99.3746 202.694" stroke="#70A7B3" stroke-width="0.5" stroke-miterlimit="10"/>
</svg>
