<svg width="390" height="388" viewBox="0 0 390 388" fill="none" xmlns="http://www.w3.org/2000/svg">
<path d="M205.919 301.157C200.644 284.8 195.369 268.443 190.094 252.086C189.244 249.426 188.46 246.765 187.588 244.126C187.348 243.428 186.912 242.796 186.563 242.12C186.236 242.883 185.648 243.624 185.604 244.388C185.321 249.666 185.037 254.965 184.994 260.265C184.929 273.372 183.926 286.414 181.746 299.346C173.877 298.06 166.096 296.424 158.511 293.916C155.132 272.805 152.713 251.607 151.645 230.256C151.274 223.037 149.661 215.796 151.405 208.556C172.308 215.316 193.386 217.759 214.834 211.042C219.847 226.635 223.247 242.599 226.037 258.716C227.934 269.621 229.634 280.569 229.83 291.691C221.918 294.963 214.267 298.976 205.919 301.157Z" fill="#B5A65B"/>
<path d="M265.163 383.922C268.607 258.891 268.89 131.941 299.209 9.83192C299.253 9.63564 299.449 9.5266 299.645 9.57022C299.842 9.61383 299.951 9.81011 299.907 10.0064C270.786 132.311 271.745 259 269.5 384.009C269.479 385.208 268.498 386.168 267.299 386.168C266.1 386.146 265.119 385.143 265.163 383.922Z" fill="#B37356"/>
<path d="M214.834 211.042C193.408 217.759 172.33 215.316 151.405 208.556C148.157 203.91 149.988 198.654 149.596 193.682C156.614 197.607 163.916 200.377 172.068 201.271C177.147 201.817 178.978 200.857 178.891 195.47C178.498 168.711 178.934 141.951 180.438 115.235C180.526 113.795 179.872 112.705 178.607 111.724C174.858 108.801 171.044 105.857 169.257 101.168C170.455 101.015 170.979 102.019 171.676 102.673C181.07 111.615 185.888 112.007 196.241 104.657C195.674 107.842 193.713 109.979 190.901 111.266C189.114 112.073 188.394 113.228 188.372 115.169C188.351 118.855 187.98 122.541 187.958 126.227C187.893 150.216 187.936 174.206 187.849 198.196C187.849 200.377 188.612 200.922 190.639 200.857C195.936 200.661 201.102 199.592 206.159 198.218C215.466 195.688 216.512 193.922 216.643 184.129C216.839 169.714 215.226 155.429 213.613 141.144C212.371 130.087 210.453 119.095 208.818 108.082C218.866 113.25 221.656 122.279 221.983 132.682C222.397 145.07 222.92 157.457 223.291 169.845C223.356 172.069 224.032 173.356 226.168 174.424C238.898 180.88 252.041 186.398 265.206 191.893C264.356 196.015 263.768 200.094 267.299 203.409C264.029 206.157 260.084 205.153 256.509 204.892C243.344 203.888 230.528 200.988 218.147 196.364C215.292 195.296 214.441 195.427 214.79 198.872C215.248 202.842 214.877 206.963 214.834 211.042Z" fill="#634A38"/>
<path d="M169.278 101.146C171.066 105.835 174.88 108.779 178.629 111.702C179.893 112.683 180.547 113.774 180.46 115.213C178.956 141.951 178.52 168.689 178.913 195.448C179 200.813 177.169 201.795 172.09 201.249C163.938 200.355 156.636 197.586 149.618 193.66C145.324 182.537 148.68 171.153 148.746 159.921C148.811 151.765 149.945 143.608 150.598 135.474C150.795 135.146 151.122 134.819 151.187 134.47C152.691 123.195 154.696 112.029 158.489 101.255C162.064 100.514 165.508 97.6131 169.3 100.623C169.278 100.797 169.278 100.972 169.278 101.146ZM166.249 134.143C166.249 136.128 165.943 138.156 166.336 140.053C166.641 141.536 167.447 144.633 169.278 143.15C171.981 140.926 170.913 136.957 170.15 133.969C169.496 131.439 167.622 134.339 166.249 134.143C165.922 130.937 166.837 127.557 165.181 124.504C164.832 123.871 164.178 123.391 163.589 122.933C163.546 122.89 162.805 123.457 162.652 123.871C161.431 126.946 160.276 130.065 161.497 133.402C162.042 134.841 162.587 137.153 163.546 137.393C165.616 137.916 164.832 134.885 166.249 134.143Z" fill="#A88159"/>
<path d="M139.351 218.762C136.845 223.953 137.041 229.688 135.995 235.162C134.055 245.282 132.093 255.423 132.638 265.848C132.812 269.141 134.992 272.042 134.251 275.422C129.521 273.328 124.856 272.587 120.366 276.011C120.475 269.359 120.998 262.664 120.628 256.034C119.69 240.026 116.247 224.411 112.083 208.97C111.909 208.359 111.059 207.923 110.514 207.4C109.969 203.387 111.669 199.156 109.293 195.339C112.563 188.753 112.018 181.294 114.11 174.424C115.898 168.558 117.184 162.539 120.519 157.239C121.979 154.927 123.745 153.531 126.578 153.88C127.145 154.011 127.733 154.142 128.3 154.273C130.523 157.762 133.837 160.467 135.559 164.327C139.438 173.05 142.032 181.992 141.226 191.719C141.051 193.66 141.553 195.666 141.727 197.651C140.921 204.717 140.136 211.74 139.351 218.762ZM125.161 190.367C129.608 190.498 132.224 189.211 134.578 187.27C134.883 187.008 135.035 186.55 135.253 186.201C134.883 186.245 134.491 186.223 134.164 186.354C128.496 188.688 122.895 189.32 117.402 185.765C117.075 185.547 116.53 185.721 116.094 185.7C116.356 186.092 116.53 186.594 116.879 186.856C119.756 188.906 123.025 189.974 125.161 190.367ZM113.914 183.322C113.696 183.606 113.435 183.911 113.457 183.955C113.762 184.304 114.11 184.653 114.481 184.915C114.525 184.936 114.873 184.522 115.07 184.326C114.743 184.02 114.372 183.715 113.914 183.322Z" fill="#BED5DD"/>
<path d="M205.919 301.156C214.289 298.997 221.918 294.985 229.83 291.67C232.097 291.037 231.617 292.629 231.661 293.872C232.576 312.454 232.773 331.1 235.911 349.485C237.241 357.293 240.184 364.337 247.747 368.612C251.67 370.814 254.984 373.977 255.572 378.971C255.768 380.694 255.616 381.675 253.349 381.654C241.273 381.523 229.176 381.566 217.079 381.588C215.662 381.588 214.986 381.305 214.79 379.691C212.327 359.059 211.172 338.254 206.987 317.84C206.289 314.438 205.505 311.058 204.589 307.699C203.979 305.235 203.478 302.945 205.919 301.156Z" fill="#634A38"/>
<path d="M208.861 108.06C210.474 119.073 212.393 130.065 213.657 141.122C215.27 155.385 216.883 169.692 216.687 184.108C216.556 193.9 215.488 195.666 206.202 198.196C201.145 199.57 195.979 200.639 190.683 200.835C188.656 200.922 187.893 200.377 187.893 198.174C187.98 174.185 187.958 150.195 188.002 126.205C188.002 122.519 188.372 118.833 188.416 115.148C188.438 113.185 189.157 112.051 190.944 111.244C193.756 109.957 195.718 107.82 196.285 104.636C196.285 104.265 196.285 103.894 196.306 103.523C201.189 103.022 205.766 103.436 208.861 108.06ZM207.248 138.57C207.009 137.218 206.813 135.953 206.573 134.688C206.355 133.598 206.725 131.897 205.047 131.94C203.499 131.962 203.151 133.729 203.02 134.863C202.758 137.415 202.867 140.01 202.867 142.583C202.867 143.586 203.412 144.263 204.502 144.328C205.396 144.393 206.115 144.044 206.333 143.172C206.704 141.624 206.943 140.075 207.248 138.57ZM206.464 125.114C206.682 123.697 206.093 122.65 204.066 122.737C202.693 122.803 201.799 123.151 201.756 124.722C201.69 126.924 203.281 127.23 204.851 127.513C206.507 127.797 206.529 126.641 206.464 125.114Z" fill="#A88159"/>
<path d="M158.511 293.916C166.096 296.424 173.877 298.06 181.746 299.346C184.907 300.546 184.318 303.316 184.275 305.715C183.882 323.009 183.446 340.304 182.967 357.62C182.771 364.904 182.356 372.188 182.138 379.473C182.095 381.152 181.55 381.654 179.893 381.632C169.801 381.545 159.688 382.155 149.661 381.326C145.302 380.956 148.07 376.354 148.266 373.715C148.375 372.428 149.639 371.033 150.751 370.095C158.772 363.312 159.6 354.24 159.012 344.709C158.293 333.107 157.53 321.526 156.68 309.946C156.375 305.889 156.048 301.811 155.241 297.842C154.609 294.679 154.609 292.869 158.511 293.916Z" fill="#634A38"/>
<path d="M196.263 103.545C196.263 103.916 196.263 104.287 196.241 104.658C185.888 112.007 181.07 111.615 171.676 102.673C170.978 102.019 170.477 101.015 169.257 101.168C169.257 100.994 169.257 100.819 169.257 100.645C169.736 97.5478 168.276 94.9089 167.36 92.1173C166.75 90.3072 165.464 88.7806 165.464 88.7806C165.464 88.7806 164.57 84.7895 165.246 82.0852C166.859 80.733 166.837 78.5521 167.774 76.9383C169.453 73.9941 167.665 67.9966 174.422 69.1743C181.79 70.4828 189.222 70.7663 196.655 69.3269C198.922 68.8907 199.358 70.6137 199.881 72.3584C200.775 75.4116 199.838 79.0319 202.606 81.5182C203.478 83.8953 202.257 86.1635 202.257 88.4752C200.252 93.5131 198.268 98.5292 196.263 103.545Z" fill="#FCD0A7"/>
<path d="M126.36 143.892C123.069 144.437 119.799 145.135 116.486 145.462C113.936 145.724 111.342 145.484 108.748 145.462C115.963 138.919 118.862 130.043 121.936 121.254" fill="#634A38"/>
<path d="M121.129 121.036C128.845 115.3 148.767 103.131 158.467 101.255C154.696 112.029 152.669 123.195 151.165 134.47C151.122 134.819 150.795 135.146 150.577 135.474C143.754 137.676 133.139 141.646 126.338 143.892" fill="#634A38"/>
<path d="M121.914 121.254C118.862 130.043 115.941 138.941 108.727 145.462C96.3242 145.942 91.8994 140.163 95.5177 127.928C98.4603 118.048 103.365 109.303 111.102 102.302C112.955 110.241 112.955 110.241 121.282 107.929C122.197 107.667 123.243 107.82 124.224 107.798C123.461 112.291 122.698 116.783 121.914 121.254Z" fill="#A88159"/>
<path d="M161.257 73.6669C163.655 65.4012 165.682 56.983 168.624 48.9136C170.063 44.988 174.924 45.3588 178.433 44.2683C180.199 43.7231 182.182 43.7449 184.057 43.6359C196.83 42.9162 198.007 43.8976 201.777 55.8925C203.587 61.6501 206.05 67.2114 208.229 72.8817C206.638 72.7073 205.069 72.5328 203.478 72.3583C203.107 68.28 199.227 68.1928 196.764 66.688C187.304 60.9522 170.477 63.5911 164.57 71.5732C163.437 72.2493 162.347 72.969 161.257 73.6669Z" fill="#B5A65B"/>
<path d="M120.344 276.033C124.835 272.609 129.521 273.35 134.229 275.444C137.629 279.805 142.01 283.448 144.19 288.747C144.452 289.38 145.084 289.968 144.452 290.623C143.885 291.212 143.144 291.364 142.316 290.906C132.42 285.65 123.352 287.831 114.699 293.938C114.263 294.243 113.762 295.312 113.086 294.243C112.759 293.72 112.323 292.825 112.541 292.411C115.44 287.09 116.791 281.027 120.344 276.033Z" fill="#7CB4BA"/>
<path d="M124.246 107.798C123.265 107.842 122.219 107.689 121.303 107.929C112.977 110.241 112.977 110.262 111.124 102.302C116.508 94.5817 126.6 91.463 135.798 94.5598C136.997 94.9742 136.866 95.8248 136.91 96.6753C137.281 102.629 136.954 108.081 128.998 108.387C128.475 108.365 127.951 108.343 127.428 108.321C126.469 107.405 125.314 107.842 124.246 107.798Z" fill="#FCD0A7"/>
<path d="M275.56 191.501C275.712 191.545 275.843 191.654 275.93 191.763L276.061 191.872C277.652 192.068 279.244 192.286 280.835 192.482C282.055 195.339 282.557 198.305 281.707 201.337C280.573 205.437 278.982 209.079 273.511 207.421C272.77 207.247 272.029 207.073 271.288 206.898C271.331 204.172 269.98 203.038 267.321 203.365C263.79 200.05 264.378 195.972 265.228 191.85C267.669 192.024 270.263 193.747 272.487 191.217" fill="#FCD0A7"/>
<path d="M139.351 218.762C140.136 211.74 140.921 204.717 141.705 197.695C145.411 202.471 147.198 208.119 148.026 213.92C148.44 216.821 149.835 221.074 147.22 222.622C145.847 223.429 142.054 220.18 139.351 218.762Z" fill="#7CB4BA"/>
<path d="M203.456 72.3365C205.047 72.511 206.616 72.6855 208.208 72.86C211.455 74.8228 211.978 77.9633 211.085 81.1474C209.864 85.4219 206.507 87.6028 202.257 88.4752C202.257 86.1416 203.478 83.8735 202.606 81.5181C202.889 78.4649 203.172 75.3898 203.456 72.3365Z" fill="#634A38"/>
<path d="M161.257 73.6669C162.347 72.969 163.437 72.2493 164.527 71.5514C164.2 75.0844 164.505 78.5957 165.246 82.0633C164.592 84.7676 166.096 89.6092 166.096 89.6092C160.342 88.1262 155.939 82.1724 159.317 76.6765C159.949 75.6515 160.603 74.6701 161.257 73.6669Z" fill="#634A38"/>
<path d="M109.271 195.361C111.669 199.178 109.947 203.409 110.492 207.421C108.618 208.359 106.634 211.02 104.934 209.755C103.539 208.73 104.542 205.699 104.956 203.561C105.566 200.377 106.765 197.542 109.271 195.361Z" fill="#7CB4BA"/>
<path d="M275.93 191.763C275.843 191.632 275.713 191.544 275.56 191.501C275.734 191.523 275.865 191.61 275.93 191.763Z" fill="#7CB4BA"/>
<path d="M166.249 134.143C166.14 135.713 165.616 137.916 163.567 137.393C162.587 137.131 162.042 134.841 161.519 133.402C160.276 130.065 161.453 126.946 162.674 123.871C162.826 123.479 163.567 122.912 163.611 122.933C164.2 123.391 164.854 123.871 165.202 124.504C166.815 127.557 165.922 130.915 166.249 134.143C166.249 134.143 166.357 132.573 166.249 134.143Z" fill="#BED5DD"/>
<path d="M166.249 134.143C166.292 133.075 169.496 131.439 170.15 133.969C170.913 136.957 171.981 140.926 169.278 143.15C167.447 144.655 166.641 141.536 166.336 140.053C165.943 138.156 166.227 136.128 166.249 134.143C166.249 134.143 166.183 135.234 166.249 134.143Z" fill="#F28463"/>
<path d="M125.161 190.367C123.025 189.974 119.756 188.906 116.879 186.834C116.53 186.572 116.356 186.07 116.094 185.678C116.53 185.7 117.097 185.547 117.402 185.743C122.873 189.298 128.475 188.687 134.164 186.332C134.491 186.201 134.883 186.223 135.253 186.179C135.035 186.55 134.883 186.986 134.578 187.248C132.224 189.211 129.586 190.498 125.161 190.367Z" fill="#7CB4BA"/>
<path d="M113.914 183.323C114.372 183.715 114.721 184.02 115.091 184.326C114.895 184.544 114.525 184.936 114.503 184.915C114.132 184.631 113.783 184.304 113.478 183.955C113.435 183.911 113.696 183.606 113.914 183.323Z" fill="#7CB4BA"/>
<path d="M207.248 138.57C206.965 140.075 206.704 141.646 206.355 143.172C206.137 144.066 205.418 144.393 204.524 144.328C203.434 144.263 202.889 143.587 202.889 142.583C202.867 140.01 202.758 137.415 203.042 134.863C203.172 133.729 203.521 131.984 205.069 131.941C206.747 131.897 206.377 133.598 206.595 134.688C206.813 135.953 207.009 137.196 207.248 138.57Z" fill="#B5A65B"/>
<path d="M206.464 125.114C206.529 126.641 206.507 127.797 204.851 127.513C203.281 127.23 201.69 126.924 201.756 124.722C201.799 123.152 202.693 122.803 204.066 122.737C206.093 122.65 206.682 123.697 206.464 125.114Z" fill="#BED5DD"/>
<path d="M165.268 82.0633C164.527 78.5957 164.2 75.1062 164.548 71.5514C170.477 63.5911 187.304 60.9304 196.742 66.6661C199.227 68.171 203.085 68.2582 203.456 72.3365C203.173 75.3897 202.889 78.4648 202.606 81.5181C199.838 79.0318 200.775 75.4115 199.881 72.3583C199.358 70.5918 198.944 68.8688 196.655 69.3268C189.223 70.7662 181.79 70.4609 174.422 69.1742C167.665 67.9747 169.453 73.994 167.774 76.9382C166.859 78.5302 166.859 80.7111 165.268 82.0633Z" fill="#A88159"/>
<path d="M128.954 108.409L128.278 154.316" stroke="#6E6A5F" stroke-miterlimit="10" stroke-linecap="round"/>
<path d="M274.601 306.5C279.729 306.5 283.886 302.34 283.886 297.209C283.886 292.078 279.729 287.918 274.601 287.918C269.473 287.918 265.315 292.078 265.315 297.209C265.315 302.34 269.473 306.5 274.601 306.5Z" fill="#B37356"/>
<path d="M274.601 303.577C278.116 303.577 280.965 300.726 280.965 297.209C280.965 293.692 278.116 290.841 274.601 290.841C271.086 290.841 268.236 293.692 268.236 297.209C268.236 300.726 271.086 303.577 274.601 303.577Z" fill="#7E4442"/>
<path d="M299.275 11.5549C298.447 44.1375 299.427 76.7202 299.929 109.303C300.103 125.594 300.321 141.907 299.079 158.199C297.749 169.365 296.725 194.271 280.9 193.137C278.786 192.897 276.78 192.242 274.884 191.392C274.601 191.261 274.492 190.956 274.601 190.672C274.732 190.389 275.059 190.28 275.32 190.389C294.698 199.352 296.79 170.87 298.098 158.09C299.362 141.864 299.209 125.551 299.079 109.281C298.643 76.6983 297.749 44.0939 298.665 11.5113C298.665 11.1623 299.297 11.1623 299.275 11.5549Z" fill="#70A7B3"/>
<path d="M274.601 207.312C282.382 242.032 288.638 274.768 280.29 289.031" stroke="#70A7B3" stroke-width="0.5" stroke-miterlimit="10" stroke-linecap="round"/>
</svg>
